<svg width="40" height="40" viewBox="0 0 40 40" fill="none" xmlns="http://www.w3.org/2000/svg">
<g id="tabler-icon-map-pin">
<g id="Vector">
<path d="M15 18.3333C15 19.6594 15.5267 20.9312 16.4644 21.8689C17.4021 22.8066 18.6739 23.3333 20 23.3333C21.326 23.3333 22.5978 22.8066 23.5355 21.8689C24.4732 20.9312 25 19.6594 25 18.3333C25 17.0073 24.4732 15.7355 23.5355 14.7978C22.5978 13.8601 21.326 13.3333 20 13.3333C18.6739 13.3333 17.4021 13.8601 16.4644 14.7978C15.5267 15.7355 15 17.0073 15 18.3333Z" stroke="#020910" stroke-width="2" stroke-linecap="round" stroke-linejoin="round"/>
<path d="M29.4283 27.7617L22.3566 34.8334C21.7316 35.4578 20.8843 35.8085 20.0008 35.8085C19.1173 35.8085 18.27 35.4578 17.645 34.8334L10.5716 27.7617C8.707 25.897 7.43719 23.5212 6.92278 20.9348C6.40836 18.3484 6.67245 15.6676 7.68164 13.2312C8.69083 10.7949 10.3998 8.7126 12.5924 7.24754C14.7851 5.78249 17.3629 5.00052 20 5.00052C22.637 5.00052 25.2149 5.78249 27.4075 7.24754C29.6001 8.7126 31.3091 10.7949 32.3183 13.2312C33.3275 15.6676 33.5916 18.3484 33.0772 20.9348C32.5627 23.5212 31.2929 25.897 29.4283 27.7617Z" stroke="#020910" stroke-width="2" stroke-linecap="round" stroke-linejoin="round"/>
</g>
</g>
</svg>
