<svg width="36" height="36" viewBox="0 0 36 36" fill="none" xmlns="http://www.w3.org/2000/svg">
<g id="tabler-icon-search">
<path id="Vector" d="M31.125 31.125L22.375 22.375M4.875 15.0833C4.875 16.4239 5.13905 17.7514 5.65206 18.9899C6.16508 20.2284 6.91702 21.3538 7.86495 22.3017C8.81288 23.2496 9.93824 24.0016 11.1768 24.5146C12.4153 25.0276 13.7428 25.2917 15.0833 25.2917C16.4239 25.2917 17.7514 25.0276 18.9899 24.5146C20.2284 24.0016 21.3538 23.2496 22.3017 22.3017C23.2496 21.3538 24.0016 20.2284 24.5146 18.9899C25.0276 17.7514 25.2917 16.4239 25.2917 15.0833C25.2917 13.7428 25.0276 12.4153 24.5146 11.1768C24.0016 9.93824 23.2496 8.81288 22.3017 7.86495C21.3538 6.91702 20.2284 6.16508 18.9899 5.65206C17.7514 5.13905 16.4239 4.875 15.0833 4.875C13.7428 4.875 12.4153 5.13905 11.1768 5.65206C9.93824 6.16508 8.81288 6.91702 7.86495 7.86495C6.91702 8.81288 6.16508 9.93824 5.65206 11.1768C5.13905 12.4153 4.875 13.7428 4.875 15.0833Z" stroke="black" stroke-width="2" stroke-linecap="round" stroke-linejoin="round"/>
</g>
</svg>
