<svg width="15" height="15" viewBox="0 0 15 15" fill="none" xmlns="http://www.w3.org/2000/svg">
<g id="tabler-icon-caret-up-filled">
<path id="Vector" d="M7.05821 4.55813C7.16583 4.45052 7.30902 4.38587 7.46091 4.37632C7.6128 4.36677 7.76296 4.41297 7.88321 4.50625L7.94196 4.55813L11.692 8.30813L11.7438 8.36688L11.7776 8.415L11.8113 8.47501L11.822 8.4975L11.8388 8.53938L11.8588 8.60688L11.8651 8.64001L11.8713 8.6775L11.8738 8.71313L11.8751 8.75L11.8738 8.78688L11.8707 8.82313L11.8651 8.86063L11.8588 8.89313L11.8388 8.96063L11.822 9.0025L11.7782 9.085L11.7376 9.14125L11.692 9.19188L11.6332 9.24375L11.5851 9.2775L11.5251 9.31125L11.5026 9.32188L11.4607 9.33876L11.3932 9.35875L11.3601 9.36501L11.3226 9.37125L11.287 9.37375L11.2501 9.375H3.75009C3.21759 9.375 2.93946 8.75875 3.26071 8.36063L3.30821 8.30813L7.05821 4.55813Z" fill="#020910"/>
</g>
</svg>
