<svg width="36" height="36" viewBox="0 0 36 36" fill="none" xmlns="http://www.w3.org/2000/svg">
<g id="tabler-icon-brand-instagram">
<path id="Vector" d="M24.5624 11.4374V11.452M6.33325 12.1666C6.33325 10.6195 6.94783 9.13576 8.0418 8.0418C9.13576 6.94783 10.6195 6.33325 12.1666 6.33325H23.8333C25.3803 6.33325 26.8641 6.94783 27.958 8.0418C29.052 9.13576 29.6666 10.6195 29.6666 12.1666V23.8333C29.6666 25.3803 29.052 26.8641 27.958 27.958C26.8641 29.052 25.3803 29.6666 23.8333 29.6666H12.1666C10.6195 29.6666 9.13576 29.052 8.0418 27.958C6.94783 26.8641 6.33325 25.3803 6.33325 23.8333V12.1666ZM13.6249 17.9999C13.6249 19.1602 14.0859 20.273 14.9063 21.0935C15.7268 21.914 16.8396 22.3749 17.9999 22.3749C19.1602 22.3749 20.273 21.914 21.0935 21.0935C21.914 20.273 22.3749 19.1602 22.3749 17.9999C22.3749 16.8396 21.914 15.7268 21.0935 14.9063C20.273 14.0859 19.1602 13.6249 17.9999 13.6249C16.8396 13.6249 15.7268 14.0859 14.9063 14.9063C14.0859 15.7268 13.6249 16.8396 13.6249 17.9999Z" stroke="#F7FBFF" stroke-width="2" stroke-linecap="round" stroke-linejoin="round"/>
</g>
</svg>
