<svg width="36" height="36" viewBox="0 0 36 36" fill="none" xmlns="http://www.w3.org/2000/svg">
<g id="tabler-icon-mail">
<path id="Vector" d="M4.875 10.7084C4.875 9.93487 5.18229 9.193 5.72927 8.64602C6.27625 8.09904 7.01812 7.79175 7.79167 7.79175H28.2083C28.9819 7.79175 29.7237 8.09904 30.2707 8.64602C30.8177 9.193 31.125 9.93487 31.125 10.7084M4.875 10.7084V25.2917C4.875 26.0653 5.18229 26.8072 5.72927 27.3541C6.27625 27.9011 7.01812 28.2084 7.79167 28.2084H28.2083C28.9819 28.2084 29.7237 27.9011 30.2707 27.3541C30.8177 26.8072 31.125 26.0653 31.125 25.2917V10.7084M4.875 10.7084L18 19.4584L31.125 10.7084" stroke="#F7FBFF" stroke-width="2" stroke-linecap="round" stroke-linejoin="round"/>
</g>
</svg>
