<svg width="15" height="15" viewBox="0 0 15 15" fill="none" xmlns="http://www.w3.org/2000/svg">
<g id="tabler-icon-caret-down-filled">
<path id="Vector" d="M11.2497 5.625C11.7822 5.625 12.0604 6.24125 11.7391 6.63938L11.6916 6.69187L7.9416 10.4419C7.83398 10.5495 7.69079 10.6141 7.5389 10.6237C7.38701 10.6332 7.23685 10.587 7.1166 10.4938L7.05785 10.4419L3.30785 6.69187L3.25598 6.63313L3.22223 6.585L3.18848 6.525L3.17785 6.5025L3.16098 6.46062L3.14098 6.39313L3.13473 6.36L3.12848 6.3225L3.12598 6.28688V6.21313L3.1291 6.17688L3.13473 6.13938L3.14098 6.10688L3.16098 6.03938L3.17785 5.9975L3.2216 5.915L3.26223 5.85875L3.30785 5.80813L3.3666 5.75625L3.41473 5.7225L3.47473 5.68875L3.49723 5.67813L3.5391 5.66125L3.6066 5.64125L3.63973 5.635L3.67723 5.62875L3.71285 5.62625L11.2497 5.625Z" fill="#020910"/>
</g>
</svg>
